HIERARCHY
ROOT Character1_Hips
{
  OFFSET 0.00186996 15.1792 0.000213289
  CHANNELS 6 Xposition Yposition Zposition Zrotation Xrotation Yrotation
  JOINT Character1_LeftUpLeg
  {
    OFFSET 1.33984 -0.942852 0
    CHANNELS 6 Xposition Yposition Zposition Zrotation Xrotation Yrotation
    JOINT Character1_LeftLeg
    {
      OFFSET 1.03111 -5.48941 0.514162
      CHANNELS 6 Xposition Yposition Zposition Zrotation Xrotation Yrotation
      JOINT Character1_LeftFoot
      {
        OFFSET 0.584472 -7.37543 -1.61389
        CHANNELS 6 Xposition Yposition Zposition Zrotation Xrotation Yrotation
        JOINT Character1_LeftToeBase
        {
          OFFSET 0.308451 -0.815751 3.43202
          CHANNELS 6 Xposition Yposition Zposition Zrotation Xrotation Yrotation
          End Site
          {
            OFFSET 0 0 0
          }
        }
      }
    }
  }
  JOINT Character1_RightUpLeg
  {
    OFFSET -1.33984 -0.942851 0
    CHANNELS 6 Xposition Yposition Zposition Zrotation Xrotation Yrotation
    JOINT Character1_RightLeg
    {
      OFFSET -1.03111 -5.48941 0.514162
      CHANNELS 6 Xposition Yposition Zposition Zrotation Xrotation Yrotation
      JOINT Character1_RightFoot
      {
        OFFSET -0.584472 -7.37543 -1.61389
        CHANNELS 6 Xposition Yposition Zposition Zrotation Xrotation Yrotation
        JOINT Character1_RightToeBase
        {
          OFFSET -0.308451 -0.815752 3.43202
          CHANNELS 6 Xposition Yposition Zposition Zrotation Xrotation Yrotation
          End Site
          {
            OFFSET 0 0 0
          }
        }
      }
    }
  }
  JOINT Character1_Spine
  {
    OFFSET 0 1.05262 0
    CHANNELS 6 Xposition Yposition Zposition Zrotation Xrotation Yrotation
    JOINT Character1_Spine1
    {
      OFFSET 0 2.01813 0
      CHANNELS 6 Xposition Yposition Zposition Zrotation Xrotation Yrotation
      JOINT Character1_Spine2
      {
        OFFSET 0 2.01813 0
        CHANNELS 6 Xposition Yposition Zposition Zrotation Xrotation Yrotation
        JOINT Character1_LeftShoulder
        {
          OFFSET 1.05262 2.25701 0
          CHANNELS 6 Xposition Yposition Zposition Zrotation Xrotation Yrotation
          JOINT Character1_LeftArm
          {
            OFFSET 1.59242 -0.163556 -0.172858
            CHANNELS 6 Xposition Yposition Zposition Zrotation Xrotation Yrotation
            JOINT Character1_LeftForeArm
            {
              OFFSET 4.24537 -1.87801 -0.325368
              CHANNELS 6 Xposition Yposition Zposition Zrotation Xrotation Yrotation
              JOINT Character1_LeftHand
              {
                OFFSET 2.98616 -1.30581 0.326127
                CHANNELS 6 Xposition Yposition Zposition Zrotation Xrotation Yrotation
                JOINT Character1_LeftHandThumb1
                {
                  OFFSET 0.707167 -0.296377 0.777353
                  CHANNELS 6 Xposition Yposition Zposition Zrotation Xrotation Yrotation
                  JOINT Character1_LeftHandThumb2
                  {
                    OFFSET 0.248522 -0.159515 0.331579
                    CHANNELS 6 Xposition Yposition Zposition Zrotation Xrotation Yrotation
                    JOINT Character1_LeftHandThumb3
                    {
                      OFFSET 0.259194 -0.254061 0.227961
                      CHANNELS 6 Xposition Yposition Zposition Zrotation Xrotation Yrotation
                      JOINT Character1_LeftHandThumb4
                      {
                        OFFSET 0.226666 -0.258213 0.206782
                        CHANNELS 6 Xposition Yposition Zposition Zrotation Xrotation Yrotation
                        End Site
                        {
                          OFFSET 0 0 0
                        }
                      }
                    }
                  }
                }
                JOINT Character1_LeftHandIndex1
                {
                  OFFSET 1.48444 -0.354189 0.611986
                  CHANNELS 6 Xposition Yposition Zposition Zrotation Xrotation Yrotation
                  JOINT Character1_LeftHandIndex2
                  {
                    OFFSET 0.504725 -0.451988 0.0493911
                    CHANNELS 6 Xposition Yposition Zposition Zrotation Xrotation Yrotation
                    JOINT Character1_LeftHandIndex3
                    {
                      OFFSET 0.296442 -0.265513 0.0299126
                      CHANNELS 6 Xposition Yposition Zposition Zrotation Xrotation Yrotation
                      JOINT Character1_LeftHandIndex4
                      {
                        OFFSET 0.197651 -0.217277 0.0208596
                        CHANNELS 6 Xposition Yposition Zposition Zrotation Xrotation Yrotation
                        End Site
                        {
                          OFFSET 0 0 0
                        }
                      }
                    }
                  }
                }
                JOINT Character1_LeftHandMiddle1
                {
                  OFFSET 1.48537 -0.317031 0.212679
                  CHANNELS 6 Xposition Yposition Zposition Zrotation Xrotation Yrotation
                  JOINT Character1_LeftHandMiddle2
                  {
                    OFFSET 0.67206 -0.620935 0.0176346
                    CHANNELS 6 Xposition Yposition Zposition Zrotation Xrotation Yrotation
                    JOINT Character1_LeftHandMiddle3
                    {
                      OFFSET 0.264032 -0.321119 0.00884256
                      CHANNELS 6 Xposition Yposition Zposition Zrotation Xrotation Yrotation
                      JOINT Character1_LeftHandMiddle4
                      {
                        OFFSET 0.180854 -0.241264 0.00658414
                        CHANNELS 6 Xposition Yposition Zposition Zrotation Xrotation Yrotation
                        End Site
                        {
                          OFFSET 0 0 0
                        }
                      }
                    }
                  }
                }
                JOINT Character1_LeftHandRing1
                {
                  OFFSET 1.48599 -0.345215 -0.172738
                  CHANNELS 6 Xposition Yposition Zposition Zrotation Xrotation Yrotation
                  JOINT Character1_LeftHandRing2
                  {
                    OFFSET 0.522196 -0.611354 0.0123873
                    CHANNELS 6 Xposition Yposition Zposition Zrotation Xrotation Yrotation
                    JOINT Character1_LeftHandRing3
                    {
                      OFFSET 0.273491 -0.359549 0.00739136
                      CHANNELS 6 Xposition Yposition Zposition Zrotation Xrotation Yrotation
                      JOINT Character1_LeftHandRing4
                      {
                        OFFSET 0.175075 -0.230164 0.0047312
                        CHANNELS 6 Xposition Yposition Zposition Zrotation Xrotation Yrotation
                        End Site
                        {
                          OFFSET 0 0 0
                        }
                      }
                    }
                  }
                }
                JOINT Character1_LeftHandPinky1
                {
                  OFFSET 1.45006 -0.450852 -0.482263
                  CHANNELS 6 Xposition Yposition Zposition Zrotation Xrotation Yrotation
                  JOINT Character1_LeftHandPinky2
                  {
                    OFFSET 0.289756 -0.353117 -0.0298237
                    CHANNELS 6 Xposition Yposition Zposition Zrotation Xrotation Yrotation
                    JOINT Character1_LeftHandPinky3
                    {
                      OFFSET 0.271225 -0.36969 -0.0280321
                      CHANNELS 6 Xposition Yposition Zposition Zrotation Xrotation Yrotation
                      JOINT Character1_LeftHandPinky4
                      {
                        OFFSET 0.192971 -0.263028 -0.019944
                        CHANNELS 6 Xposition Yposition Zposition Zrotation Xrotation Yrotation
                        End Site
                        {
                          OFFSET 0 0 0
                        }
                      }
                    }
                  }
                }
              }
            }
          }
        }
        JOINT Character1_RightShoulder
        {
          OFFSET -1.05262 2.257 0
          CHANNELS 6 Xposition Yposition Zposition Zrotation Xrotation Yrotation
          JOINT Character1_RightArm
          {
            OFFSET -1.59242 -0.16355 -0.172858
            CHANNELS 6 Xposition Yposition Zposition Zrotation Xrotation Yrotation
            JOINT Character1_RightForeArm
            {
              OFFSET -4.24536 -1.87803 -0.325405
              CHANNELS 6 Xposition Yposition Zposition Zrotation Xrotation Yrotation
              JOINT Character1_RightHand
              {
                OFFSET -2.98616 -1.30581 0.326125
                CHANNELS 6 Xposition Yposition Zposition Zrotation Xrotation Yrotation
                JOINT Character1_RightHandThumb1
                {
                  OFFSET -0.707168 -0.296375 0.777354
                  CHANNELS 6 Xposition Yposition Zposition Zrotation Xrotation Yrotation
                  JOINT Character1_RightHandThumb2
                  {
                    OFFSET -0.248522 -0.159517 0.33158
                    CHANNELS 6 Xposition Yposition Zposition Zrotation Xrotation Yrotation
                    JOINT Character1_RightHandThumb3
                    {
                      OFFSET -0.259194 -0.254063 0.227961
                      CHANNELS 6 Xposition Yposition Zposition Zrotation Xrotation Yrotation
                      JOINT Character1_RightHandThumb4
                      {
                        OFFSET -0.226668 -0.258211 0.206783
                        CHANNELS 6 Xposition Yposition Zposition Zrotation Xrotation Yrotation
                        End Site
                        {
                          OFFSET 0 0 0
                        }
                      }
                    }
                  }
                }
                JOINT Character1_RightHandIndex1
                {
                  OFFSET -1.48444 -0.354191 0.611987
                  CHANNELS 6 Xposition Yposition Zposition Zrotation Xrotation Yrotation
                  JOINT Character1_RightHandIndex2
                  {
                    OFFSET -0.504725 -0.451986 0.0493911
                    CHANNELS 6 Xposition Yposition Zposition Zrotation Xrotation Yrotation
                    JOINT Character1_RightHandIndex3
                    {
                      OFFSET -0.296443 -0.265513 0.0299125
                      CHANNELS 6 Xposition Yposition Zposition Zrotation Xrotation Yrotation
                      JOINT Character1_RightHandIndex4
                      {
                        OFFSET -0.197651 -0.217279 0.0208598
                        CHANNELS 6 Xposition Yposition Zposition Zrotation Xrotation Yrotation
                        End Site
                        {
                          OFFSET 0 0 0
                        }
                      }
                    }
                  }
                }
                JOINT Character1_RightHandMiddle1
                {
                  OFFSET -1.48537 -0.31703 0.212679
                  CHANNELS 6 Xposition Yposition Zposition Zrotation Xrotation Yrotation
                  JOINT Character1_RightHandMiddle2
                  {
                    OFFSET -0.672061 -0.620937 0.0176347
                    CHANNELS 6 Xposition Yposition Zposition Zrotation Xrotation Yrotation
                    JOINT Character1_RightHandMiddle3
                    {
                      OFFSET -0.264031 -0.321119 0.00884257
                      CHANNELS 6 Xposition Yposition Zposition Zrotation Xrotation Yrotation
                      JOINT Character1_RightHandMiddle4
                      {
                        OFFSET -0.180854 -0.241264 0.00658401
                        CHANNELS 6 Xposition Yposition Zposition Zrotation Xrotation Yrotation
                        End Site
                        {
                          OFFSET 0 0 0
                        }
                      }
                    }
                  }
                }
                JOINT Character1_RightHandRing1
                {
                  OFFSET -1.48599 -0.345215 -0.172738
                  CHANNELS 6 Xposition Yposition Zposition Zrotation Xrotation Yrotation
                  JOINT Character1_RightHandRing2
                  {
                    OFFSET -0.522198 -0.611355 0.0123874
                    CHANNELS 6 Xposition Yposition Zposition Zrotation Xrotation Yrotation
                    JOINT Character1_RightHandRing3
                    {
                      OFFSET -0.27349 -0.359549 0.00739126
                      CHANNELS 6 Xposition Yposition Zposition Zrotation Xrotation Yrotation
                      JOINT Character1_RightHandRing4
                      {
                        OFFSET -0.175076 -0.230166 0.00473136
                        CHANNELS 6 Xposition Yposition Zposition Zrotation Xrotation Yrotation
                        End Site
                        {
                          OFFSET 0 0 0
                        }
                      }
                    }
                  }
                }
                JOINT Character1_RightHandPinky1
                {
                  OFFSET -1.45006 -0.450851 -0.482263
                  CHANNELS 6 Xposition Yposition Zposition Zrotation Xrotation Yrotation
                  JOINT Character1_RightHandPinky2
                  {
                    OFFSET -0.289757 -0.353119 -0.0298238
                    CHANNELS 6 Xposition Yposition Zposition Zrotation Xrotation Yrotation
                    JOINT Character1_RightHandPinky3
                    {
                      OFFSET -0.271225 -0.36969 -0.028032
                      CHANNELS 6 Xposition Yposition Zposition Zrotation Xrotation Yrotation
                      JOINT Character1_RightHandPinky4
                      {
                        OFFSET -0.192971 -0.263025 -0.0199442
                        CHANNELS 6 Xposition Yposition Zposition Zrotation Xrotation Yrotation
                        End Site
                        {
                          OFFSET 0 0 0
                        }
                      }
                    }
                  }
                }
              }
            }
          }
        }
        JOINT Character1_Neck
        {
          OFFSET 0 2.01813 0
          CHANNELS 6 Xposition Yposition Zposition Zrotation Xrotation Yrotation
          JOINT Character1_Head
          {
            OFFSET 0 3.0075 0
            CHANNELS 6 Xposition Yposition Zposition Zrotation Xrotation Yrotation
            End Site
            {
              OFFSET 0 0 0
            }
          }
        }
      }
    }
  }
}
MOTION
Frames:	2
Frame Time:	0.0166667
0.00186996 15.1792 0.000213289 -0.113621 0.0129613 1.28512e-005 1.33984 -0.942852 2.9064e-014 -0.0794364 6.89234 0.8756 1.03111 -5.48941 0.514162 0.00227782 -12.1071 -1.28801 0.584472 -7.37543 -1.61389 -0.0313641 5.20031 0.416542 0.308451 -0.815751 3.43202 1.60009e-014 -7.21602e-008 -2.85255e-014 -1.33984 -0.942851 5.03807e-015 0.310207 7.53059 -0.976304 -1.03111 -5.48941 0.514162 0.0473869 -13.2251 1.43125 -0.584472 -7.37543 -1.61389 0.0264146 5.6804 -0.452699 -0.308451 -0.815752 3.43202 1.26204e-014 -2.09451e-008 2.5368e-014 -1.01e-012 1.05262 -9.51981e-014 -0.336211 0.0383525 0.000112527 2.76474e-010 2.01813 -7.67042e-008 -1.14715e-014 -2.45393e-009 1.30276e-011 2.75703e-010 2.01813 -7.66992e-008 -5.33593e-008 -2.45411e-009 4.32071e-012 1.05262 2.25701 6.36089e-008 -0.557037 -0.0662851 -0.0598338 1.59242 -0.163556 -0.172858 -49.2567 10.9361 -4.8914 4.24537 -1.87801 -0.325368 -1.49565 -8.62115 -3.49246 2.98616 -1.30581 0.326127 -0.207919 -2.21793 0.966489 0.707167 -0.296377 0.777353 -5.07858e-007 -3.63356e-008 -4.18823e-011 0.248522 -0.159515 0.331579 5.25737e-007 3.97154e-009 -3.86477e-008 0.259194 -0.254061 0.227961 4.62303e-007 -1.99878e-008 8.57397e-008 0.226666 -0.258213 0.206782 -3.88651e-005 -3.72399e-008 -1.7036e-007 1.48444 -0.354189 0.611986 -5.07858e-007 -3.63356e-008 -4.18823e-011 0.504725 -0.451988 0.0493911 5.25737e-007 3.97154e-009 -3.86477e-008 0.296442 -0.265513 0.0299126 4.62303e-007 -1.99878e-008 8.57397e-008 0.197651 -0.217277 0.0208596 -3.88651e-005 -3.72399e-008 -1.7036e-007 1.48537 -0.317031 0.212679 -5.07858e-007 -3.63356e-008 -4.18823e-011 0.67206 -0.620935 0.0176346 5.25737e-007 3.97154e-009 -3.86477e-008 0.264032 -0.321119 0.00884256 4.62303e-007 -1.99878e-008 8.57397e-008 0.180854 -0.241264 0.00658414 -3.88651e-005 -3.72399e-008 -1.7036e-007 1.48599 -0.345215 -0.172738 -5.07858e-007 -3.63356e-008 -4.18823e-011 0.522196 -0.611354 0.0123873 5.25737e-007 3.97154e-009 -3.86477e-008 0.273491 -0.359549 0.00739136 4.62303e-007 -1.99878e-008 8.57397e-008 0.175075 -0.230164 0.0047312 -3.88651e-005 -3.72399e-008 -1.7036e-007 1.45006 -0.450852 -0.482263 -5.07858e-007 -3.63356e-008 -4.18823e-011 0.289756 -0.353117 -0.0298237 5.25737e-007 3.97154e-009 -3.86477e-008 0.271225 -0.36969 -0.0280321 4.62303e-007 -1.99878e-008 8.57397e-008 0.192971 -0.263028 -0.019944 -3.88651e-005 -3.72399e-008 -1.7036e-007 -1.05262 2.257 1.17756e-007 1.91366e-011 4.94595e-009 -4.29409e-014 -1.59242 -0.16355 -0.172858 51.1128 11.3954 0.693246 -4.24536 -1.87803 -0.325405 5.87434 -12.7663 11.9479 -2.98616 -1.30581 0.326125 -0.254128 1.96917 0.869789 -0.707168 -0.296375 0.777354 3.1407e-005 -1.47615e-009 -1.05405e-009 -0.248522 -0.159517 0.33158 -2.29486e-008 -1.37673e-010 -2.83446e-008 -0.259194 -0.254063 0.227961 -1.22836e-008 -4.26944e-010 4.13426e-009 -0.226668 -0.258211 0.206783 -6.20862e-006 -1.39914e-009 7.86472e-010 -1.48444 -0.354191 0.611987 3.1407e-005 -1.47615e-009 -1.05405e-009 -0.504725 -0.451986 0.0493911 -2.29486e-008 -1.37672e-010 -2.83446e-008 -0.296443 -0.265513 0.0299125 -1.22835e-008 -4.26945e-010 4.13426e-009 -0.197651 -0.217279 0.0208598 -6.20862e-006 -1.39914e-009 7.86467e-010 -1.48537 -0.31703 0.212679 3.1407e-005 -1.47615e-009 -1.05405e-009 -0.672061 -0.620937 0.0176347 -2.29486e-008 -1.37673e-010 -2.83446e-008 -0.264031 -0.321119 0.00884257 -1.22836e-008 -4.26944e-010 4.13426e-009 -0.180854 -0.241264 0.00658401 -6.20862e-006 -1.39914e-009 7.8647e-010 -1.48599 -0.345215 -0.172738 3.1407e-005 -1.47615e-009 -1.05405e-009 -0.522198 -0.611355 0.0123874 -2.29486e-008 -1.37673e-010 -2.83446e-008 -0.27349 -0.359549 0.00739126 -1.22836e-008 -4.26942e-010 4.13426e-009 -0.175076 -0.230166 0.00473136 -6.20862e-006 -1.39914e-009 7.86467e-010 -1.45006 -0.450851 -0.482263 3.1407e-005 -1.47615e-009 -1.05405e-009 -0.289757 -0.353119 -0.0298238 -2.29486e-008 -1.37672e-010 -2.83446e-008 -0.271225 -0.36969 -0.028032 -1.22835e-008 -4.26945e-010 4.13425e-009 -0.192971 -0.263025 -0.0199442 -6.20862e-006 -1.39914e-009 7.86472e-010 1.16446e-009 2.01813 1.84421e-007 4.83697e-014 3.98108e-011 -1.55405e-009 -3.97661e-010 3.0075 -3.47343e-007 1.28517e-016 -1.53642e-011 -2.12052e-009 
0.00225707 15.1414 -0.000804859 -0.122558 -0.00352797 9.22587e-005 1.33984 -0.942851 1.15762e-013 -0.12384 4.05899 0.491654 1.03111 -5.48941 0.514162 0.277532 -7.07979 -0.729855 0.584472 -7.37543 -1.61389 -0.103838 3.02131 0.26344 0.308452 -0.815751 3.43202 1.59966e-014 -2.84561e-007 -2.85227e-014 -1.33984 -0.942851 2.04408e-014 0.37215 4.26395 -0.527674 -1.03111 -5.48941 0.514162 -0.271255 -7.57213 0.787816 -0.584472 -7.37543 -1.61389 0.105775 3.30848 -0.286665 -0.308451 -0.815752 3.43202 1.26184e-014 -8.29315e-008 2.53599e-014 -4.02506e-012 1.05262 -3.79549e-013 -0.357113 0.0223469 3.60094e-005 2.7701e-010 2.01813 -7.6704e-008 -0.00182329 1.09828 -0.000456591 2.73935e-010 2.01813 -7.66839e-008 -0.00182742 1.09828 -0.00017646 1.05262 2.25701 4.85675e-008 -0.571763 -0.0674549 -0.0558209 1.59242 -0.163555 -0.172858 -49.612 11.0206 -5.19826 4.24537 -1.878 -0.325368 -1.18996 -8.89041 -1.47761 2.98615 -1.30581 0.326131 -0.142249 -1.52898 0.667556 0.707168 -0.296378 0.777353 -1.92163e-006 -1.43777e-007 -1.66907e-010 0.248522 -0.159516 0.33158 2.00292e-006 1.57884e-008 -1.52637e-007 0.259194 -0.254061 0.227961 1.7632e-006 -7.70438e-008 3.35626e-007 0.226666 -0.258213 0.206783 -4.42317e-005 -1.45888e-007 -6.67388e-007 1.48444 -0.354189 0.611987 -1.92163e-006 -1.43777e-007 -1.66907e-010 0.504725 -0.451988 0.0493912 2.00292e-006 1.57884e-008 -1.52637e-007 0.296442 -0.265513 0.0299126 1.7632e-006 -7.70438e-008 3.35626e-007 0.19765 -0.217278 0.0208597 -4.42317e-005 -1.45888e-007 -6.67388e-007 1.48537 -0.317032 0.212679 -1.92163e-006 -1.43777e-007 -1.66907e-010 0.672059 -0.620935 0.0176346 2.00292e-006 1.57884e-008 -1.52637e-007 0.264032 -0.321119 0.00884256 1.7632e-006 -7.70438e-008 3.35626e-007 0.180854 -0.241265 0.00658411 -4.42317e-005 -1.45888e-007 -6.67388e-007 1.48599 -0.345215 -0.172738 -1.92163e-006 -1.43777e-007 -1.66907e-010 0.522196 -0.611354 0.0123873 2.00292e-006 1.57884e-008 -1.52637e-007 0.273491 -0.359549 0.00739136 1.7632e-006 -7.70438e-008 3.35626e-007 0.175075 -0.230164 0.00473118 -4.42317e-005 -1.45888e-007 -6.67388e-007 1.45006 -0.450852 -0.482263 -1.92163e-006 -1.43777e-007 -1.66907e-010 0.289756 -0.353117 -0.0298237 2.00292e-006 1.57884e-008 -1.52637e-007 0.271225 -0.36969 -0.0280321 1.7632e-006 -7.70438e-008 3.35626e-007 0.192971 -0.263027 -0.019944 -4.42317e-005 -1.45888e-007 -6.67388e-007 -1.05262 2.257 8.68013e-008 7.60953e-011 1.97029e-008 -3.82117e-014 -1.59242 -0.163552 -0.172859 51.4085 11.4527 -0.89174 -4.24536 -1.87803 -0.325416 5.5451 -12.3379 10.3657 -2.98615 -1.30581 0.326126 -0.335538 2.60849 1.15351 -0.707168 -0.296375 0.777354 3.4976e-005 -5.89373e-009 -4.19072e-009 -0.248522 -0.159517 0.33158 -8.30829e-008 -5.61662e-010 -1.12334e-007 -0.259195 -0.254063 0.227961 -4.90861e-008 -1.71186e-009 1.64422e-008 -0.226668 -0.258212 0.206783 -1.77389e-005 -5.5955e-009 3.13475e-009 -1.48444 -0.354191 0.611987 3.4976e-005 -5.89373e-009 -4.19072e-009 -0.504725 -0.451986 0.0493911 -8.30829e-008 -5.61661e-010 -1.12334e-007 -0.296443 -0.265513 0.0299125 -4.90861e-008 -1.71186e-009 1.64422e-008 -0.197651 -0.217279 0.0208598 -1.77389e-005 -5.5955e-009 3.13475e-009 -1.48537 -0.31703 0.212679 3.4976e-005 -5.89373e-009 -4.19072e-009 -0.672061 -0.620938 0.0176347 -8.30829e-008 -5.61661e-010 -1.12334e-007 -0.264031 -0.321119 0.00884257 -4.90861e-008 -1.71186e-009 1.64422e-008 -0.180854 -0.241265 0.00658397 -1.77389e-005 -5.5955e-009 3.13474e-009 -1.48599 -0.345215 -0.172738 3.4976e-005 -5.89373e-009 -4.19072e-009 -0.522198 -0.611355 0.0123874 -8.30829e-008 -5.61661e-010 -1.12334e-007 -0.273489 -0.359548 0.00739121 -4.90861e-008 -1.71186e-009 1.64422e-008 -0.175076 -0.230166 0.00473137 -1.77389e-005 -5.5955e-009 3.13475e-009 -1.45006 -0.450851 -0.482263 3.4976e-005 -5.89373e-009 -4.19072e-009 -0.289757 -0.353119 -0.0298238 -8.30829e-008 -5.61661e-010 -1.12334e-007 -0.271225 -0.36969 -0.0280319 -4.90861e-008 -1.71186e-009 1.64422e-008 -0.192971 -0.263025 -0.0199441 -1.77389e-005 -5.5955e-009 3.13474e-009 1.16249e-009 2.01813 1.79179e-007 1.92004e-013 1.58439e-010 -5.71878e-009 -3.97946e-010 3.0075 -5.24169e-007 -3.23569e-018 -6.13331e-011 -7.80341e-009 
